<?xml version="1.0" encoding="utf-8"?>
<!-- Generator: Adobe Illustrator 21.0.2, SVG Export Plug-In . SVG Version: 6.00 Build 0)  -->
<svg version="1.1" id="Layer_1" xmlns="http://www.w3.org/2000/svg" xmlns:xlink="http://www.w3.org/1999/xlink" x="0px" y="0px"
	 viewBox="0 0 217.4 217.4" style="enable-background:new 0 0 217.4 217.4;" xml:space="preserve">
<style type="text/css">
	.st0{fill:#083344;}
	.st1{fill:#FCFCFC;}
</style>
<title>Civil</title>
<rect x="-3.5" y="-2.2" class="st0" width="222.3" height="222.3"/>
<path class="st1" d="M79.5,119.8c0-0.4,0.1-0.8,0.1-1.2c0-10.7,0-21.4,0-32.1c0-1.3,0.5-1.6,1.7-1.6c2.6,0.1,5.2,0.1,7.7,0
	c2.6-0.1,4.2,1.5,5.9,2.8c0.4,0.3,0.4,1.2,0.4,1.8c0,10.1,0,20.3,0,30.4c0,1,0.2,1.8,1.4,1.7c0.9,0,1.4-0.4,1.4-1.3V118
	c0-12.1,0-24.2,0-36.4c0-1.2,0.5-1.6,1.6-1.6c1.5,0,3,0,4.5,0c1.3,0.1,1.8-0.3,1.8-1.7c0-8.8,0-17.7-0.1-26.5
	c-0.1-1,0.4-1.9,1.3-2.4c2.2-1.5,4.8-2.3,7.5-2.2c4.1,0.2,8.2,0.1,12.3,0.1c1.9,0,2.1,0.2,2.1,2.1V118c0,2,0.2,2.1,2.1,1.6
	c0.4-0.1,0.7-0.7,1-1.1c0.1-0.2,0-0.6,0-1V88.5c0-1.7,0.2-1.8,1.6-1c1.4,0.8,3.1,1.6,4.6,2.4c0.8,0.4,1.4,1.2,1.3,2.1
	c-0.1,4.3,0,8.5,0,12.8c0,1.3,0.4,1.6,1.7,1.8c1.3,0.3,2.6,0.8,3.8,1.6c0.3,0.2,0.4,1,0.4,1.5c0,2.9,0,5.8,0,8.7
	c0,0.4,0.1,0.8,0.1,1.6c0.6-0.4,0.9-0.7,1.2-1c3.4-3.4,6.3-7.2,8.5-11.5c0.7-1.3,1.4-1.5,2.7-1c4,1.4,8.2,2.7,12.2,3.9
	c1.1,0.3,1.1,0.8,0.6,1.7c-8.6,16.2-21.5,27.5-39,32.9c-20.8,6.5-40.5,3.4-58.5-9c-8.7-6-15.8-14-20.7-23.3
	c-3.4-6.1-5.6-12.9-6.6-19.8c-1.1-7.3-1.1-14.6,0-21.9c1.6-8.5,4.7-16.7,9.3-24c7-11.6,16.8-19.9,28.9-25.5c6.5-3,13.5-4.9,20.6-5.5
	c14.5-1.5,29.1,1.8,41.5,9.6c8.6,5.1,16,12.2,21.4,20.6c1.5,2.3,2.6,4.8,3.9,7.1c0.5,0.9,0.3,1.3-0.6,1.5c-4.4,1.3-8.8,2.6-13.2,4
	c-1.1,0.3-1.5,0-2-0.8c-3.6-6.5-8.6-12.1-14.6-16.4C111.6,20.5,69.4,38.1,64,74.4c-2.3,15.4,1.1,29.6,11.4,41.8
	c1.2,1.4,2.5,2.6,3.7,3.9L79.5,119.8z"/>
</svg>
