<?xml version="1.0" encoding="utf-8"?>
<!-- Generator: Adobe Illustrator 21.0.2, SVG Export Plug-In . SVG Version: 6.00 Build 0)  -->
<svg version="1.1" id="Layer_1" xmlns="http://www.w3.org/2000/svg" xmlns:xlink="http://www.w3.org/1999/xlink" x="0px" y="0px"
	 viewBox="0 0 217.4 217.4" style="enable-background:new 0 0 217.4 217.4;" xml:space="preserve">
<style type="text/css">
	.st0{fill:#083344;}
	.st1{fill:#FCFCFC;}
</style>
<title>ECE</title>
<rect x="-2.5" y="-3.1" class="st0" width="222.3" height="222.3"/>
<path class="st1" d="M92.8,59.3c0.8,0.6,1.6,1.2,2.4,1.8c6.3,6.3,12.6,12.7,18.9,19.1c0.2,0.1,0.3,0.1,0.5,0.2c0-0.5,0.1-1,0.1-1.5
	c0-5.4,0-10.7,0-16.1c0-2,0.3-2.2,2.3-2.3c1,0,1.9,0,2.9,0c1.4-0.1,1.9,0.5,1.9,1.9c0,5.2,0,10.4,0,15.5c0,1.3,0.3,1.7,1.6,1.7
	c12.9,0,25.8,0,38.8,0c1.3,0,1.7-0.3,1.5-1.7c-1.5-11.1-6.4-21.5-14-29.8c-1.4-1.6-1.5-2.1,0-3.6c2.4-2.4,4.8-4.8,7.2-7.2
	c1.3-1.3,2.5-1.3,3.7,0c6.9,7.4,12.1,16.3,15.3,25.9c3.4,10.2,4.4,21.1,2.9,31.8c-1.9,14.5-8.4,28-18.4,38.7c-0.7,0.9-2,1.1-2.9,0.4
	c-0.1-0.1-0.2-0.2-0.4-0.3c-2.6-2.5-5.1-5-7.6-7.6c-0.9-0.9-0.9-2.4,0-3.4c5.4-5.8,9.4-12.7,11.8-20.3c1-3.1,1.5-6.4,2.2-9.6
	c0.3-1.4-0.2-1.6-1.5-1.6c-9,0-18,0-27,0h-11.6c-0.5,0-1,0.1-1.7,0.1v5.2c0,3.9,0,7.8,0,11.8c0,1.6-0.4,2-2,2c-1,0-2,0-3.1,0
	c-1.7,0-2-0.3-2-2c0-5.5,0-10.8,0-16.3c0-0.5-0.1-1-0.1-1.8c-0.5,0.4-0.7,0.6-0.9,0.8c-5.8,5.7-11.5,11.5-17.2,17.2
	c-1.2,1-2.4,1.9-3.6,2.7c-0.1-1.1-0.3-1.6-0.3-2.1c0-5.3,0-10.7,0-16c0-1.2-0.3-1.6-1.5-1.6c-12,0-23.9,0-35.9,0
	c-1.2,0-1.6,0.2-1.4,1.6c1.5,11.1,6.3,21.4,13.8,29.7c1.7,1.9,1.7,2.2-0.1,4c-2.3,2.3-4.6,4.7-7,7c-1.6,1.6-2.2,1.6-3.8-0.1
	c-5.3-5.8-9.7-12.5-12.8-19.7C32.6,88,37.6,58,56.7,37.4c1.7-1.8,2.1-1.8,3.8-0.1c2.3,2.3,4.7,4.6,7,7c1.5,1.6,1.6,2.3,0.1,3.9
	c-7.5,8.3-12.3,18.6-13.8,29.6c-0.2,1.4,0.3,1.6,1.5,1.6c11.9,0,23.8,0,35.7,0c1.3,0,1.6-0.4,1.6-1.6c-0.1-5.5,0-10.9,0-16.4
	C92.6,60.9,92.7,60.4,92.8,59.3z"/>
</svg>
