<?xml version="1.0" encoding="utf-8"?>
<!-- Generator: Adobe Illustrator 21.0.2, SVG Export Plug-In . SVG Version: 6.00 Build 0)  -->
<svg version="1.1" id="Layer_1" xmlns="http://www.w3.org/2000/svg" xmlns:xlink="http://www.w3.org/1999/xlink" x="0px" y="0px"
	 viewBox="0 0 217.4 217.4" style="enable-background:new 0 0 217.4 217.4;" xml:space="preserve">
<style type="text/css">
	.st0{fill:#083344;}
	.st1{fill:#FCFCFC;}
</style>
<title>IT</title>
<rect x="-2.1" y="-4.5" class="st0" width="222.3" height="222.3"/>
<path class="st1" d="M174.5,80.6c0.2,36.6-30.3,66.5-67.1,65.8c-36.3-0.7-65.2-30.7-64.5-67s30.7-65.2,67-64.5
	C146.6,15.5,174.8,45.8,174.5,80.6z M79.1,36C63.1,46.2,51.6,67.3,56,90.8c3.8,20.4,18.9,34.4,31.7,39.1c0-0.2,0-0.5,0-0.7
	c0-28.4,0-56.8,0-85.3c0-0.6-0.3-1.2-0.8-1.6C84.3,40.1,81.7,38.1,79.1,36L79.1,36z M160.5,95.1c1.8-6.1,2.4-12.6,1.9-18.9
	c-1.5-14.7-7.5-27.1-18.9-36.5C128.9,27.6,112.3,24.2,94,29c-1,0.3-1.3,0.7-1.3,1.8c0.1,2.8,0.1,5.6,0,8.4c-0.1,0.8,0.3,1.6,1,2.1
	C111,55.1,128.2,69,145.4,82.9L160.5,95.1z M92.8,115.5c0.5-0.5,0.8-0.8,1.1-1.2c4.4-5,8.8-10,13.2-15c2.1-2.3,3.8-2.1,5.2,0.7
	c5,10,10,20.1,15,30.1c0.1,0.3,0.3,0.5,0.6,1l9.5-4.8c-0.3-0.7-0.5-1.1-0.7-1.4c-4.8-9.6-9.6-19.2-14.4-28.9c-1.4-2.9-0.2-4.9,3-5
	c5.1-0.2,10.2-0.4,15.3-0.6c1.8-0.1,3.5-0.2,5.6-0.3L92.8,47L92.8,115.5z M109,105c-5.3,6-10.5,11.9-15.6,17.8
	c-0.4,0.5-0.5,1-0.6,1.6c-0.1,2.1,0,4.2-0.1,6.3c0,1,0.4,1.4,1.2,1.6c7.7,2.2,15.8,2.6,23.7,1.3c1.6-0.3,3.2-0.7,5-1.1L109,105z
	 M158.9,100.4c-2.1-1.7-4-3.3-6-4.8c-0.5-0.3-1-0.4-1.6-0.3c-5.7,0.2-11.4,0.4-17.1,0.7c-1.9,0.1-3.9,0.2-6,0.3l13.5,27.1
	C149.4,117.3,155.3,109.4,158.9,100.4L158.9,100.4z M87.7,31.2L83.8,33l3.9,3.2V31.2z"/>
</svg>
