<?xml version="1.0" encoding="utf-8"?>
<!-- Generator: Adobe Illustrator 21.0.2, SVG Export Plug-In . SVG Version: 6.00 Build 0)  -->
<svg version="1.1" id="Layer_1" xmlns="http://www.w3.org/2000/svg" xmlns:xlink="http://www.w3.org/1999/xlink" x="0px" y="0px"
	 viewBox="0 0 221 221" style="enable-background:new 0 0 221 221;" xml:space="preserve">
<style type="text/css">
	.st0{fill:#083344;}
	.st1{fill:#FCFCFC;}
</style>
<title>NonTech</title>
<rect x="-1.1" y="-0.4" class="st0" width="222.3" height="222.3"/>
<path class="st1" d="M137.1,45.4l4,3.7c1.1-0.8,1.4-2.4,0.8-3.6c-0.9-1.9-1.9-3.8-2.7-5.8c-0.2-1-0.2-2-0.1-3l0.5-0.1l0.7,1
	c0.2-3.1,1.5-6,3.5-8.2c0.2,1,0.5,1.9,1,2.8c0.4,0.6,1,1,1.6,1.2c0.5,0.1,0.9-0.1,1.2-0.5c0.2-0.4,0.2-0.9,0.1-1.3
	c-1.5-2.7-3.1-5.4-6-6.9c-0.4-0.2-0.7-0.6-1-1c2.7-0.3,5.2,0.7,7.4,2c2.1,1.3,4.2,2.7,6.2,4.3l0.3-0.2l-0.4-1.8
	c3.2,1.7,5,4.6,6.7,7.4c0.2,0.4,0.4,0.7,0.7,1.1c0.2,0.2,0.5,0.1,0.7,0.2c0.1-0.3,0.1-0.5,0.1-0.8c-0.1-0.5-0.3-1-0.4-1.4l0.3-0.3
	c0.4,0.3,0.8,0.6,1.2,0.9c2.5,2.4,4.4,5.2,5.7,8.3c1.7,3.5,3.1,7.1,4.3,10.8c1.2,4.5,2.1,9.1,2.7,13.7c0.5,4.3,0.6,8.7,0.3,13
	c-0.3,5.5-1.3,11-3.1,16.3c-3,8.6-7.1,16.8-13.2,23.7c-3.5,4-7.4,7.6-11.5,10.9c-7.5,5.8-16.2,10-25.5,12.2
	c-7.3,1.8-14.9,2.4-22.4,1.8c-4-0.3-8-1-11.8-2c-4.4-1.1-8.8-2.6-13-4.4c-6.1-2.7-11.7-6.4-16.4-11.1c-3.4-3.3-6.7-6.7-9.7-10.4
	c-5.1-6.5-9-14-11.3-22c-1.5-5.2-2.4-10.6-2.8-16c-0.6-8,0.3-16.1,2.5-23.9c0.7-2.3,1.6-4.5,2.4-6.7c1.1-3.1,3.7-4.9,6.1-6.9
	c5.5-4.5,10.9-9.1,16.4-13.6c2.2-1.8,4.5-3.5,6.8-5.3c0.9-0.8,2.3-0.8,3.3,0c3.2,2.4,6.5,4.8,9.6,7.3c4.2,3.5,8.3,7.2,12.4,10.8
	c0.9,0.7,1.3,2,0.7,3.1c-1.7,3.4-3.4,6.8-5.4,10.1c-1.9,3.1-4.1,6-6,9c-0.3,0.7-1,1-1.7,0.7c-0.1,0-0.1-0.1-0.2-0.1
	c-4.3-2-8.8-3.8-12.7-6.6c-1-0.6-1.4-1.8-1-2.8c1-3,2-6,3-9c0.3-0.8,0.5-1.5,0.7-2.4c0.3-1.7-0.3-2.7-1.7-3
	c-1.3-0.1-2.6,0.8-2.9,2.1c-1.1,3.8-2.3,7.7-3.3,11.5c-0.9,3.2-0.2,5.1,2.6,6.9c4.4,2.7,8.8,5.3,13.3,7.8c1.2,0.7,2.9,0.6,4.3,0.7
	c0.5,0,1.1-0.5,1.5-1c2.6-2.9,5.2-5.8,7.8-8.6c1.5-1.7,2.5-1.5,3.7,0.4c1.9,3.1,3.3,6.4,4,10c0.6,1.9-0.2,4-2,5
	c-5,3.3-9.9,6.6-14.7,10.2c-2.6,1.9-5.3,3.8-6.9,6.7c-4.2,8.3-1.6,16.3,5.8,21.1c4.5,3.1,9.5,5.4,14.7,6.7c7,1.5,14.2,1.2,21-0.8
	c5.7-1.8,10.9-4.7,15.4-8.6c5.8-5,10-11.4,12.3-18.7c1.8-5.1,2.4-10.5,1.9-15.9c-0.8-8.9-4.3-17.3-10.1-24
	C138.1,50.2,136.7,48.2,137.1,45.4z"/>
<path class="st1" d="M147.1,213.6L147.1,213.6c-0.8,0-1.6,0-2.5,0H147.1z"/>
</svg>
