<?xml version="1.0" encoding="utf-8"?>
<!-- Generator: Adobe Illustrator 21.0.2, SVG Export Plug-In . SVG Version: 6.00 Build 0)  -->
<svg version="1.1" id="Layer_1" xmlns="http://www.w3.org/2000/svg" xmlns:xlink="http://www.w3.org/1999/xlink" x="0px" y="0px"
	 viewBox="0 0 217.4 217.4" style="enable-background:new 0 0 217.4 217.4;" xml:space="preserve">
<style type="text/css">
	.st0{fill:#083344;}
	.st1{fill:#FCFCFC;}
</style>
<title>AEI</title>
<rect x="-0.1" y="-1.7" class="st0" width="222.3" height="222.3"/>
<g>
	<path class="st1" d="M41.4,84.7c0-37.2,30.1-67.3,67.3-67.3c38.3-0.1,67.4,31.4,67.3,67.4c-0.4,37.2-30.9,67-68.1,66.5
		C71.4,150.9,41.8,121.3,41.4,84.7L41.4,84.7z M109,139.7c30.3,0,54.8-24.5,54.8-54.7c0-30.3-24.5-54.8-54.7-54.8
		c-30.3,0-54.8,24.5-54.8,54.7C54.2,115.1,78.7,139.7,109,139.7z"/>
	<path class="st1" d="M62.1,98.1c6.3,22.7,28,37.6,51.5,35.4c24.4-2.3,38.9-21,42.2-35.3h-35.4c4.6,8.1,4.3,14.6-1,19.9
		c-4.7,4.7-11.9,5.6-17.6,2.3c-2.8-1.6-5-4-6.2-7c-2.3-5.5-1.3-10.6,2.2-15.3L62.1,98.1z M107.3,46.7C99.7,46.8,92,48,84.7,50.3
		c-5.3,1.6-10.4,3.8-15.3,6.5c-0.5,0.3-1.1,0.5-0.7,1.3c2.6,4.7,5.3,9.5,8,14.2c0.3,0.3,0.7,0.4,1.1,0.3c1.4-0.6,2.7-1.3,4-2
		c0.7-0.3,0.9-0.7,0.5-1.4c-1-2.1-1.9-4.3-2.9-6.4c-0.5-1-0.4-1.6,0.7-2c2.7-0.9,5.4-1.9,8-2.9c1-0.3,1.4,0,1.6,1
		c0.3,1.2,0.6,2.4,1,3.5c0.2,0.4,0.6,0.6,1,0.6c1.3-0.2,2.6-0.5,3.8-0.9c0.5-0.2,0.8-0.7,0.8-1.2c-0.1-1.2-0.3-2.4-0.6-3.6
		c-0.2-0.9,0.1-1.3,0.9-1.4c2.4-0.3,4.8-0.7,7.3-0.9c2.9-0.2,2.4-0.3,2.6,2.3c0.2,4.1-0.6,3.3,3.6,3.4c0,0,0.1,0,0.1,0
		c0.7,0,1-0.3,1-1.1c0-1.3,0-2.5,0.1-3.8c0-0.4,0.6-1,0.9-0.9c3,0.3,6,0.6,9,1c0.3,0,0.7,0.7,0.7,1.1c-0.1,1.3-0.4,2.5-0.6,3.7
		c-0.2,0.8,0.1,1.2,0.9,1.3c1.2,0.2,2.4,0.4,3.6,0.8c0.9,0.3,1.2-0.1,1.3-0.8c0.3-1.1,0.6-2.3,0.9-3.4c0.2-0.9,0.6-1.2,1.6-0.9
		c2.7,1,5.4,2,8.2,2.9c1.1,0.4,1.1,0.9,0.7,1.9c-1,2.1-1.9,4.3-2.9,6.4c-0.4,0.8-0.2,1.2,0.5,1.5c1.2,0.5,2.4,1.1,3.5,1.8
		c1,0.6,1.4,0.3,1.8-0.6c2.3-4.3,4.7-8.5,7.1-12.8c1-1.7,1-1.8-0.8-2.7C135.7,50,122.7,46.6,107.3,46.7z"/>
	<path class="st1" d="M62.1,98.1h35.6c-3.5,4.8-4.5,9.9-2.2,15.3c1.2,3,3.4,5.4,6.2,7c5.7,3.3,13,2.3,17.6-2.3
		c5.3-5.3,5.7-11.8,1-19.9h35.4c-3.3,14.4-17.8,33.1-42.2,35.4C90.1,135.7,68.4,120.8,62.1,98.1z"/>
	<path class="st1" d="M107.3,46.7c15.4,0,28.4,3.3,40.6,9.7c1.8,0.9,1.8,0.9,0.8,2.7c-2.4,4.3-4.8,8.5-7.1,12.8
		c-0.5,0.9-0.9,1.2-1.8,0.6c-1.1-0.7-2.3-1.3-3.5-1.8c-0.7-0.3-0.9-0.7-0.5-1.5c1-2.1,1.9-4.3,2.9-6.4c0.4-0.9,0.4-1.5-0.7-1.9
		c-2.7-1-5.4-1.9-8.2-2.9c-0.9-0.3-1.3,0-1.6,0.9c-0.3,1.1-0.6,2.3-0.9,3.4c-0.2,0.7-0.5,1.1-1.3,0.8c-1.2-0.3-2.4-0.6-3.6-0.8
		c-0.9-0.1-1.1-0.6-0.9-1.3c0.3-1.2,0.5-2.5,0.6-3.7c0-0.4-0.4-1.1-0.7-1.1c-3-0.4-6-0.7-9-1c-0.3,0-0.9,0.6-0.9,0.9
		c-0.1,1.3-0.2,2.5-0.1,3.8c0,0.7-0.3,1.1-1,1.1c0,0-0.1,0-0.1,0c-4.3-0.1-3.4,0.7-3.6-3.4c-0.1-2.6,0.4-2.6-2.6-2.3
		c-2.4,0.2-4.8,0.6-7.3,0.9c-0.9,0.1-1.1,0.5-0.9,1.4c0.3,1.2,0.5,2.4,0.6,3.6c0,0.5-0.3,1-0.8,1.2c-1.2,0.4-2.5,0.7-3.8,0.9
		c-0.4,0-0.8-0.2-1-0.6c-0.4-1.2-0.7-2.3-1-3.5c-0.2-1-0.7-1.3-1.6-1c-2.7,1-5.3,1.9-8,2.9c-1.1,0.4-1.2,1-0.7,2
		c1,2.1,1.9,4.3,2.9,6.4c0.3,0.7,0.2,1.1-0.5,1.4c-1.3,0.7-2.6,1.4-4,2c-0.4,0.1-0.8,0-1.1-0.3c-2.7-4.7-5.3-9.5-8-14.2
		c-0.4-0.8,0.2-1,0.7-1.3c4.9-2.7,10-4.9,15.3-6.5C92,48,99.7,46.8,107.3,46.7z"/>
	<path class="st1" d="M115.2,98.7c-0.7-0.4-1.2-1.2-1.2-2.1c-0.6-7.1-1.3-14.1-1.9-21.3c-0.1-1.6-0.4-1.9-2-1.9c-0.7,0-1.5,0-2.2,0
		c-1.7,0-1.9,0.3-2,2c-0.6,7-1.3,14-1.9,20.9c0,1-0.6,1.9-1.4,2.4c-4.2,3-5.7,8.5-3.7,13.2c2,4.7,7,7.4,12.1,6.5
		c5.1-0.9,8.9-5.4,9-10.6C120,104.2,118.2,100.7,115.2,98.7z M109,113.5c-3.2-0.1-5.8-2.7-5.8-6c0.2-3.2,2.9-5.7,6.1-5.5
		c3.1,0.1,5.5,2.6,5.5,5.7C114.7,110.9,112.2,113.5,109,113.5z"/>
</g>
</svg>
