<?xml version="1.0" encoding="utf-8"?>
<!-- Generator: Adobe Illustrator 21.0.2, SVG Export Plug-In . SVG Version: 6.00 Build 0)  -->
<svg version="1.1" id="Layer_1" xmlns="http://www.w3.org/2000/svg" xmlns:xlink="http://www.w3.org/1999/xlink" x="0px" y="0px"
	 viewBox="0 0 217.4 217.4" style="enable-background:new 0 0 217.4 217.4;" xml:space="preserve">
<style type="text/css">
	.st0{fill:#083344;}
	.st1{fill:#FCFCFC;}
</style>
<title>CSE</title>
<rect x="-2.5" y="-1.7" class="st0" width="222.3" height="222.3"/>
<g>
	<path class="st1" d="M176.1,71.9c-4.2,0.2-8,0.3-11.9,0.5c-1,0-1-0.6-1.2-1.3c-2.2-11.7-7.2-22-15.9-30.2
		C131,25.8,111.9,20.8,90.7,27.6S56.8,49.3,52.8,71.1c-5.8,31.7,16.4,61.4,48.4,65.3c5.5,0.6,11,0.5,16.5-0.5
		c4.9-0.8,8.5-5.1,7.8-10.1c-0.6-4.2-0.9-8.5-1.4-12.7c-0.4-3-2-5.4-4-7.5c-0.3-0.4-0.6-0.8-1-1.3c0.5-0.3,0.9-0.6,1.3-0.8
		c5.4-2.7,10.3-5.9,13.4-11.4c0.3-0.4,0.7-0.7,1.3-0.8c5.9,0.5,11-1.8,15.6-5.1c0.3-0.1,0.5-0.2,0.8-0.3c0.2,0.7,0.3,1.4,0.4,2.2
		c-0.2,5.9-2.6,11-7.4,14.4c-3.1,1.9-4.8,5.4-4.4,9c0.2,6.1,0.5,12.3,0.5,18.4c0,6.4-3.9,13.4-10.8,16c-8.1,3-16.8,4.3-25.5,3.8
		c-15.3-0.6-29.9-6.4-41.5-16.4C49.1,121.6,41.1,106.8,39,89c-4.7-37.9,22.2-72.3,60.1-77c35.1-4.3,67.9,18.6,75.8,53.1
		C175.3,67.3,175.7,69.6,176.1,71.9z"/>
	<path class="st1" d="M92.2,81.3c-0.6,0.7-1.1,1.3-1.6,1.8c-2.2,2.2-3.6,5-4.1,8c-0.1,0.5-0.4,0.9-0.8,1.1c-6,2.3-12,3-17.7-0.6
		c-6.7-4.2-9.8-13.2-7.2-21.2c1.1-3.6,3.1-6.9,5.9-9.4c0.5-0.5,0.8-1.1,0.9-1.7c2.2-8.2,9.7-13.8,18.1-13.8c0.8-0.1,1.5-0.4,2.1-0.9
		c6.5-6.1,14-7.7,22.3-4.9c1.8,0.5,3.6,0.6,5.4,0.1c9.5-1.6,19.1,2.7,24.2,10.9c0.2,0.3,0.4,0.5,0.7,0.7c4.7,2.6,8.3,6.8,10,11.9
		c1.6,4.4,1.9,9.1,0.9,13.7c-1.2,5.2-5,7.8-9.6,9.5c-3.1,1.2-6.3,0.9-9.5,0.8c-1.4-0.2-2.7,0.5-3.3,1.8c-1.1,2-2.4,4-3.8,5.8
		c-3,4.4-10.5,7.8-17,5.4c-0.8-0.3-1.6-0.2-2.3,0.2c-4.2,2.1-8.6,2.2-12.7-0.2c-4.1-2.4-5-8.3-2.2-12.4c1-1.4,2.2-2.6,3.5-3.7
		c1.1-0.7,1.6-1.9,1.5-3.1c-0.6-4.9,4.5-9.1,8.8-8.3c2.3,0.4,3.5-0.1,4.8-2c1.9-2.8,7.6-4.9,12.4-2.8c0.7,0.4,1.4,0.6,2.2,0.8
		c0.5,0.1,1.1-0.1,1.5-0.5c0.1-0.6,0.1-1.2-0.1-1.7c0-0.2-0.3-0.4-0.5-0.5c-3-1.4-6-2.9-9.4-1.8c-1.1,0.4-1.5,0-1.8-1
		c-1.1-3.5,0.3-7.2,3.3-9.2c2-1.5,4.4-2.5,6.9-2.8c5.4-0.7,9.7,2.7,10.4,8.6c0.1,1.4,1,2.6,2.3,3.1c2.2,1,3.7,2.6,3.6,5.2
		c-0.1,2.8-0.9,5.1-3.8,6.5c-2.9,1.3-5.9,1.4-8.9,1.4c-3.6,0-7.1,0.9-10.2,2.6c-2.4,1.3-4.4,3.2-5.8,5.5c-1,1.5-2.2,2.9-3.3,4.2
		c-0.9,1.1-2.1,0.9-3.2,0.4c-0.6-0.5-1.3-0.9-2-1.3c-0.6-0.2-1.3-0.2-1.9,0.1c-0.6,0.4-0.7,1.1-0.4,1.7c0.1,0.1,0.2,0.2,0.3,0.3
		c3.2,3.4,7.2,4,10.6,0.2c0.9-1.1,1.7-2.3,2.4-3.5c2.5-4.3,6.5-6.3,11.2-7c1.7-0.2,3.3-0.3,5-0.3c3.2,0,6.3-0.9,8.9-2.5
		c3.7-2,5.5-6.2,4.4-10.3c-0.7-2.5-2.4-4.6-4.7-5.8c-0.8-0.5-1.4-1.3-1.6-2.2c-1.6-8.2-9.2-12.3-17.1-9.3c-0.8,0.2-1.7,0.6-2.4,1
		c-1.4,1-2.2,0.4-3.3-0.5c-4.8-4-10.2-5.7-16.3-3.6c-2.7,0.9-4.9,2.9-6,5.5c-0.3,0.9-1.2,1.6-2.2,1.6c-3.8,0.3-7.4,1.9-10.1,4.6
		c-1.6,1.7-2.6,3.9-2.8,6.2c-0.2,1.6-0.7,2.2-2.4,2.4c-5.1,0.8-8.7,5.4-8.3,10.5c0.7,5.2,5.4,9.2,10.4,8.6c1.4-0.2,2.7-0.7,4-1.4
		c0.5-0.4,0.7-1,0.6-1.5c-0.4-0.5-0.9-0.9-1.6-0.9c-1,0.1-1.9,0.2-2.9,0.4c-3.2,0.3-5.3-0.8-6.6-3.4c-1.1-2.3-0.7-5,0.9-6.9
		c1.8-2.2,4.9-2.9,7.5-1.8c3.1,1.3,5.9,3.3,8.1,5.8C88.9,77.3,90.5,79.3,92.2,81.3z"/>
	<path class="st1" d="M93.2,77l-5.7-5.1c-2-1.8-4.1-3.5-6.8-4.3c-0.4-0.3-0.6-0.7-0.7-1.2c0-4.8,2.8-8.3,7.5-9.4
		c1.6-0.4,3.3-0.7,4.9-0.8c0.9,0.1,1.6-0.5,1.8-1.3c1.7-6,7.5-7.2,12.6-5.7c2,0.6,3.7,2.1,5.5,3.2c0.8,0.5,0.7,1,0.2,1.7
		c-2.5,3.1-3.2,7.2-2,11c0,0.4-0.1,0.9-0.5,1.1c-1.2,1.1-2.5,2.1-3.7,3.1c-0.4,0.3-0.9,0.5-1.4,0.5c-5.5-0.2-9.5,2.1-11.9,7.2
		c-0.1,0.1-0.2,0.2-0.3,0.3L93.2,77z"/>
	<path class="st1" d="M161.9,84.4c0-3.1,0-6.1,0-9.1c0-1.6,0.6-2.2,2.2-2.2H177c0.9-0.1,1.8,0.5,1.9,1.4c0,0.1,0,0.3,0,0.4
		c0,6.2,0,12.3,0,18.4c0,1.1-0.3,1.6-1.6,1.6c-4.8-0.1-9.6-0.1-14.4,0c-0.9,0-1.2-0.4-1.2-1.2C161.9,90.6,161.9,87.4,161.9,84.4z
		 M166.3,90.4l0.4,0.3l7-8.2c-0.8-0.1-1-0.1-1.2-0.1c-2.1-0.1-2.1-0.2-1.2-2.1c0.6-1.3,1.2-2.6,1.8-3.8l-0.4-0.2l-7,7.8
		c0.3,0.1,0.6,0.2,0.9,0.2c2.4,0.1,2.4,0.2,1.5,2.3C167.5,87.9,166.9,89.2,166.3,90.4z"/>
	<path class="st1" d="M170.5,106.7c-1.7,0-3.3,0-5,0c-0.9,0-1.3-0.3-1.2-1.2c0-2.9,0.1-5.8,0-8.7c0-1.2,0.7-1.3,1.5-1.3
		c2.1,0,4.1,0,6.2,0c1.3,0,2.6,0.1,3.8,0.1c0.8,0,1.1,0.3,1.1,1.1c0,2.9,0,5.8,0,8.7c0,0.9-0.4,1.2-1.2,1.2
		C173.9,106.7,172.2,106.7,170.5,106.7L170.5,106.7z M173.2,101.7c1.1,0.1,2,0.2,2-1.5c0-1.6-0.8-1.5-1.9-1.6
		c-1.5-0.1-1.6,0.7-1.6,1.8C171.6,101.6,172.2,101.8,173.2,101.7z M168,101.7c1.2,0.4,1.6-0.2,1.6-1.4c0-1.2-0.4-1.6-1.6-1.6
		c-1,0-1.8-0.1-1.8,1.4C166.2,101.5,166.6,101.9,168,101.7L168,101.7z"/>
</g>
</svg>
