<?xml version="1.0" encoding="utf-8"?>
<!-- Generator: Adobe Illustrator 21.0.2, SVG Export Plug-In . SVG Version: 6.00 Build 0)  -->
<svg version="1.1" id="Layer_1" xmlns="http://www.w3.org/2000/svg" xmlns:xlink="http://www.w3.org/1999/xlink" x="0px" y="0px"
	 viewBox="0 0 217.4 217.4" style="enable-background:new 0 0 217.4 217.4;" xml:space="preserve">
<style type="text/css">
	.st0{fill:#083344;}
	.st1{fill:#FCFCFC;}
</style>
<title>eee</title>
<rect x="-1.1" y="-2.2" class="st0" width="222.3" height="222.3"/>
<path class="st1" d="M88.6,98.6c0-3.7,0-7.4,0-11.1c0-1.2-0.4-1.7-1.6-1.6c-3.7,0.1-7.4,0.1-11.1,0.1c-1.8,0-1.9-0.1-1.9-1.9
	c0.1-4.6,0.2-9.4,0.1-14c-0.1-10.6,5-18.5,12.9-24.9c3.1-2.6,6.6-4.4,10.5-5.5c0.4-0.1,1-0.6,1-0.9c0.2-3.4,2.3-5.9,4.1-8.5
	c5.1-7.2,12.5-10.3,21.1-10.7c5.7-0.3,11.5,0.4,16.9,2.1c6.5,2.1,12.5,5.7,17.5,10.4c8.7,8.1,14.1,18.2,17,29.7
	c1.9,7.6,2.5,15.4,1.7,23.2c-1.6,13.9-6.5,26.6-16,37.1c-9.4,10.6-22,17.8-36,20.4c-8.3,1.5-16.7,1.9-25.1,1.2
	c-5.9-0.4-11.6-1.8-17-4.2c-4.7-1.9-9.2-4.2-13.5-6.9c-10.1-6.7-18.1-16.1-23-27.1c-2.6-6-4.3-12.3-5.3-18.7
	c-1.5-9.2-1.2-18.5,0.7-27.6c1.4-6.3,3.8-12.3,7.2-17.7c4.9-8,11.6-14.8,19.5-19.8c2.1-1.4,4.5-2.3,7-1.1c4.7,2.3,6.9,6.6,2.3,11.5
	c-1.8,1.8-3.6,3.5-5.7,4.9C66.5,41.6,61.9,47.4,59,54.1c-3.7,8.1-5.3,17-4.5,25.9c0.7,9.5,3.9,18.7,9.2,26.6
	c6.3,9.5,15.7,16.7,26.5,20.3c6.6,2.3,13.5,3.3,20.5,3c6.2-0.3,12.2-1.6,18-3.8c7.5-2.7,14.2-7.1,19.7-12.9
	c6.2-6.4,10.6-14.4,12.7-23c1.2-4.6,1.7-9.4,1.6-14.2c-0.6-10.6-3.8-20.2-10.4-28.6c-4.5-5.8-10.8-10.1-17.8-12.3
	c-3.1-1-6.3-1.4-9.5-1.4c-3.6-0.1-5.6,1.9-7.4,4.6c-0.5,0.8-0.5,1.3,0.5,1.7c9.8,4,16.3,11.4,20,21.1c1.6,3.7,2.3,7.7,2.1,11.7
	c-0.3,3.7-0.1,7.4,0,11.1c0,1.5-0.6,1.9-2,1.9c-4.1-0.1-8.2-0.1-12.3-0.1c-1.9,0-1.9,0.2-1.9,2c0,7.1,0,14.1,0,21.1
	c0,2-0.2,2.1-2.1,2.1c-2.6,0-5.2-0.1-7.8,0c-1.2,0-1.6-0.4-1.6-1.6c0-7.3,0-14.7,0.1-22c0-1.2-0.3-1.7-1.6-1.7
	c-2.8,0-5.6-0.1-8.4-0.1c-2.2,0-2.5,0.3-2.5,2.5c0,7.1,0,14.2,0,21.3c0,1.9,0,1.9-1.9,1.9c-2.6,0-5.3,0-8,0.1
	c-1.2,0-1.6-0.4-1.6-1.6C88.6,106.1,88.6,102.3,88.6,98.6L88.6,98.6z"/>
</svg>
