<?xml version="1.0" encoding="utf-8"?>
<!-- Generator: Adobe Illustrator 21.0.2, SVG Export Plug-In . SVG Version: 6.00 Build 0)  -->
<svg version="1.1" id="Layer_1" xmlns="http://www.w3.org/2000/svg" xmlns:xlink="http://www.w3.org/1999/xlink" x="0px" y="0px"
	 viewBox="0 0 217.4 217.4" style="enable-background:new 0 0 217.4 217.4;" xml:space="preserve">
<style type="text/css">
	.st0{fill:#083344;}
	.st1{fill:#FCFCFC;}
</style>
<title>Mech</title>
<rect x="-1.3" y="-0.4" class="st0" width="222.3" height="222.3"/>
<g>
	<path class="st1" d="M118.1,136.5c0-4.3,0-8.5,0-12.8c-0.2-1,0.5-1.9,1.4-2.1c0,0,0.1,0,0.1,0c18.4-5,31.3-22.5,30-41.1
		c-1-14.8-9-28.3-26-34.3c-4.2-1.5-8.5-2.5-12.9-3.1c-9.2-1.2-17.4,1.8-24.4,7.5c-10,8-15.6,18.6-16.4,31.4
		C69,98.7,79,114.1,94.7,120c1.7,0.6,3.5,1.2,5.2,1.7c0.8,0.1,1.3,0.8,1.2,1.6c0,0,0,0,0,0.1c0,8.8,0,17.5,0,26.3
		c0,1.2-0.4,1.5-1.5,1.5s-1.3-0.6-1.3-1.5c0-3.8,0-7.6,0-11.4c0.2-0.9-0.5-1.8-1.4-1.9c0,0-0.1,0-0.1,0c-6-1.6-11.8-3.9-17.2-7.1
		c-0.7-0.5-1.6-0.3-2.1,0.3c0,0,0,0,0,0c-2.3,2.4-4.7,4.6-7.1,6.9c-0.4,0.4-0.8,0.8-1.2,1.1c-0.7,0.8-1.9,0.8-2.7,0.1
		c-0.1,0-0.1-0.1-0.1-0.2c-4.4-4.6-8.9-9.2-13.2-13.8c-0.3-0.6-0.4-1.2-0.2-1.8c0.3-0.6,0.7-1.1,1.2-1.5c2.6-2.5,5.3-5,7.9-7.5
		c0.5-0.5,0.8-0.9,0.4-1.6c-2.9-4.6-4.2-10-5.7-15.1c-0.1-1.1-1.1-1.9-2.3-1.8c-3.7-0.1-7.3-0.5-11-0.6c-1.3-0.1-1.8-0.6-1.8-2
		c0.1-6.3,0.2-12.6,0.3-18.9c0-1.2,0.5-1.6,1.6-1.6c3.9,0,7.7-0.1,11.6-0.2c0.7,0,1.4-0.1,1.5-1c0.4-4,2.1-7.6,3.9-11.1
		c0.7-1.4,1.3-2.8,2.1-4c0.6-0.7,0.5-1.6-0.2-2.2c-0.1-0.1-0.1-0.1-0.2-0.2c-1.9-1.7-3.9-3.5-5.7-5.4c-1-1.1-1.9-2.3-2.8-3.5
		c-0.5-0.6-0.3-1.1,0.2-1.7c4.5-4.5,8.9-9,13.3-13.5c1.2-1.2,1.5-1.2,2.7,0c2.8,2.7,5.7,5.3,8.5,8c0.6,0.7,1.6,0.8,2.3,0.3
		c5.3-3.1,10.9-5.4,16.8-7c0.9-0.2,1-0.8,1.1-1.5c0.1-3.3,0.2-6.6,0.3-9.9c0-0.5,0.1-0.9,0.1-1.4c0.1-0.9,0.5-1.3,1.5-1.3
		c6.2,0,12.5,0,18.7,0c1.7,0,2.1,0.3,2.1,2.1c0,3.4,0.1,6.9,0.1,10.3c0,0.9,0.2,1.5,1.2,1.8c5.8,1.4,11.1,4,16.3,6.8
		c0.8,0.6,2,0.4,2.6-0.4c0,0,0,0,0,0c2.6-2.6,5.3-5.2,8-7.8c1.4-1.3,2.1-1.3,3.5,0.1c4.1,4.4,8.3,8.7,12.4,13.1
		c0.9,0.9,0.9,1.6,0,2.6c-2.9,3-5.7,6-8.5,9c-0.7,0.5-0.8,1.4-0.4,2.1c2,4.8,4,9.5,5.9,14.4c0.3,1.1,1.3,1.8,2.4,1.7
		c3.7,0,7.4,0.1,11.1,0.2c2,0,2.2,0.3,2.2,2.3c-0.1,6-0.2,11.9-0.2,17.9c0,1.3-0.5,1.9-1.8,2c-3.9,0.2-7.9,0.5-11.8,0.7
		c-0.7,0-1.4,0.5-1.6,1.2c-1.9,5-3.9,9.9-5.9,14.8c-0.4,0.7-0.3,1.6,0.4,2c2.7,2.6,5.3,5.2,7.9,7.9c1.3,1.3,1.3,2,0.1,3.4
		c-2.8,3.1-5.4,6.2-8.2,9.2c-1.3,1.4-2.8,2.7-4.2,3.9c-0.7,0.7-1.8,0.7-2.5,0.1c-0.5-0.4-1-0.8-1.5-1.2c-2.3-2.2-4.6-4.3-6.9-6.5
		c-0.5-0.7-1.5-0.9-2.3-0.4c-5,2.3-10.1,4.6-15.2,6.7c-2.7,1.1-2.8,1-2.8,4c0,3.4,0,6.8,0,10.2c0,1.2-0.5,1.5-1.6,1.4
		c-1.1,0-1.9,0.2-1.8-1.4C118.1,145.3,118.1,140.9,118.1,136.5z"/>
	<path class="st1" d="M105.6,94c-0.2,0.4-0.4,0.8-0.7,1.2c-1.6,1.7-3.2,3.4-4.7,5.2c-0.8,0.9-1.5,0.4-2.2,0.1
		c-5-2.6-10.1-5.3-15.1-8c-3.1-1.7-6-3.7-9-5.5c-1.7-1-0.6-2-0.2-3c0.5-1.2,1.3-0.7,2-0.4c9.3,3.2,18.6,6.3,27.9,9.5
		C104.3,93.3,105,93.6,105.6,94z"/>
	<path class="st1" d="M114.5,94.2c2.3-0.8,4.3-1.5,6.2-2.2l23.3-8.3c1.1-0.5,2.5,0,3,1.2c0.1,0.2,0.1,0.3,0.2,0.5
		c0.3,1.1-0.4,1.5-1.2,1.8l-13.2,7.4c-3.6,2-7.2,4-10.8,6c-0.6,0.5-1.4,0.4-1.9-0.2c0,0-0.1-0.1-0.1-0.1
		C118.3,98.2,116.4,96.3,114.5,94.2z"/>
	<path class="st1" d="M104.7,136.8c0-4.3,0.1-8.5,0-12.8c0-1.6,0.9-1.3,1.8-1.4c0.9-0.1,1.6,0.1,1.6,1.4c-0.1,8.5-0.1,17.1,0,25.6
		c0,1.5-0.8,1.4-1.8,1.5s-1.7-0.1-1.7-1.5C104.8,145.3,104.7,141.1,104.7,136.8z"/>
	<path class="st1" d="M114.5,136.7c0,4.3,0,8.6,0,12.9c0,1.1-0.3,1.5-1.4,1.4c-1.1,0-1.5-0.3-1.5-1.4c0-8.6,0-17.1,0-25.7
		c0-1.2,0.5-1.3,1.5-1.4c1,0,1.4,0.2,1.4,1.3C114.4,128.2,114.5,132.4,114.5,136.7L114.5,136.7z"/>
	<path class="st1" d="M110.6,101.2c1,4.2,2,8.2,3,12.3c0.2,0.7-0.1,1.1-0.8,1.1c-1.5,0-3-0.1-4.5-0.1c-0.7,0-1.1-0.4-0.9-1.2
		l2.9-11.6C110.3,101.5,110.4,101.4,110.6,101.2z"/>
</g>
</svg>
